<svg width="29" height="24" viewBox="0 0 29 24" fill="none" xmlns="http://www.w3.org/2000/svg">
<path fill-rule="evenodd" clip-rule="evenodd" d="M2.35179 12.0002C2.35179 11.8013 2.44441 11.6105 2.60926 11.4699C2.77411 11.3292 2.99771 11.2502 3.23085 11.2502H23.9642L18.4314 6.53122C18.2664 6.39039 18.1737 6.19938 18.1737 6.00021C18.1737 5.80105 18.2664 5.61004 18.4314 5.46921C18.5965 5.32838 18.8204 5.24927 19.0538 5.24927C19.2873 5.24927 19.5111 5.32838 19.6762 5.46921L26.7086 11.4692C26.7905 11.5389 26.8554 11.6216 26.8997 11.7128C26.9441 11.8039 26.9669 11.9016 26.9669 12.0002C26.9669 12.0989 26.9441 12.1965 26.8997 12.2877C26.8554 12.3788 26.7905 12.4615 26.7086 12.5312L19.6762 18.5312C19.5111 18.672 19.2873 18.7512 19.0538 18.7512C18.8204 18.7512 18.5965 18.672 18.4314 18.5312C18.2664 18.3904 18.1737 18.1994 18.1737 18.0002C18.1737 17.8011 18.2664 17.61 18.4314 17.4692L23.9642 12.7502H3.23085C2.99771 12.7502 2.77411 12.6712 2.60926 12.5305C2.44441 12.3899 2.35179 12.1991 2.35179 12.0002Z" fill="black"/>
</svg>
