<svg width="30" height="24" viewBox="0 0 30 24" fill="none" xmlns="http://www.w3.org/2000/svg">
<path fill-rule="evenodd" clip-rule="evenodd" d="M2.73468 12.0002C2.73468 11.8013 2.82729 11.6105 2.99215 11.4699C3.157 11.3292 3.38059 11.2502 3.61373 11.2502H24.3471L18.8143 6.53122C18.6493 6.39039 18.5565 6.19938 18.5565 6.00021C18.5565 5.80105 18.6493 5.61004 18.8143 5.46921C18.9794 5.32838 19.2033 5.24927 19.4367 5.24927C19.6701 5.24927 19.894 5.32838 20.0591 5.46921L27.0915 11.4692C27.1734 11.5389 27.2383 11.6216 27.2826 11.7128C27.327 11.8039 27.3498 11.9016 27.3498 12.0002C27.3498 12.0989 27.327 12.1965 27.2826 12.2877C27.2383 12.3788 27.1734 12.4615 27.0915 12.5312L20.0591 18.5312C19.894 18.672 19.6701 18.7512 19.4367 18.7512C19.2033 18.7512 18.9794 18.672 18.8143 18.5312C18.6493 18.3904 18.5565 18.1994 18.5565 18.0002C18.5565 17.8011 18.6493 17.61 18.8143 17.4692L24.3471 12.7502H3.61373C3.38059 12.7502 3.157 12.6712 2.99215 12.5305C2.82729 12.3899 2.73468 12.1991 2.73468 12.0002Z" fill="black"/>
</svg>
