<svg width="16" height="16" viewBox="0 0 16 16" fill="none" xmlns="http://www.w3.org/2000/svg">
<g clip-path="url(#clip0_9_455)">
<path fill-rule="evenodd" clip-rule="evenodd" d="M12.1494 0.132489C12.1959 0.0859262 12.251 0.0489834 12.3118 0.023777C12.3725 -0.00142949 12.4376 -0.0144043 12.5034 -0.0144043C12.5692 -0.0144043 12.6343 -0.00142949 12.695 0.023777C12.7558 0.0489834 12.811 0.0859262 12.8574 0.132489L15.8574 3.13249C15.904 3.17894 15.9409 3.23411 15.9661 3.29486C15.9913 3.3556 16.0043 3.42072 16.0043 3.48649C16.0043 3.55226 15.9913 3.61738 15.9661 3.67812C15.9409 3.73887 15.904 3.79404 15.8574 3.84049L5.85741 13.8405C5.80942 13.8881 5.75227 13.9256 5.68941 13.9505L0.689407 15.9505C0.598543 15.9869 0.499003 15.9958 0.403127 15.9761C0.30725 15.9564 0.219254 15.9091 0.150048 15.8398C0.0808414 15.7706 0.0334679 15.6826 0.0138004 15.5868C-0.00586702 15.4909 0.00303648 15.3914 0.0394071 15.3005L2.03941 10.3005C2.06434 10.2376 2.10176 10.1805 2.14941 10.1325L12.1494 0.132489ZM11.2104 2.48649L13.5034 4.77949L14.7964 3.48649L12.5034 1.19349L11.2104 2.48649ZM12.7964 5.48649L10.5034 3.19349L4.00341 9.69349V9.98649H4.50341C4.63602 9.98649 4.76319 10.0392 4.85696 10.1329C4.95073 10.2267 5.00341 10.3539 5.00341 10.4865V10.9865H5.50341C5.63602 10.9865 5.76319 11.0392 5.85696 11.1329C5.95073 11.2267 6.00341 11.3539 6.00341 11.4865V11.9865H6.29641L12.7964 5.48649ZM3.03541 10.6615L2.92941 10.7675L1.40141 14.5885L5.22241 13.0605L5.32841 12.9545C5.23303 12.9189 5.1508 12.8549 5.09272 12.7713C5.03464 12.6877 5.00348 12.5883 5.00341 12.4865V11.9865H4.50341C4.3708 11.9865 4.24362 11.9338 4.14985 11.84C4.05609 11.7463 4.00341 11.6191 4.00341 11.4865V10.9865H3.50341C3.40159 10.9864 3.30222 10.9553 3.21858 10.8972C3.13495 10.8391 3.07104 10.7569 3.03541 10.6615Z" fill="black"/>
</g>
<defs>
<clipPath id="clip0_9_455">
<rect width="16" height="16" fill="white"/>
</clipPath>
</defs>
</svg>
