<svg width="300" height="159" viewBox="0 0 300 159" fill="none" xmlns="http://www.w3.org/2000/svg">
<path fill-rule="evenodd" clip-rule="evenodd" d="M28 0C12.536 0 0 12.536 0 28V30H4.5C7.53757 30 10 32.4624 10 35.5C10 38.5376 7.53757 41 4.5 41H0V75H5C7.76142 75 10 77.2386 10 80C10 82.7614 7.76142 85 5 85H0V119H4.5C7.53757 119 10 121.462 10 124.5C10 127.538 7.53757 130 4.5 130H0V131C0 146.464 12.536 159 28 159H268C285.673 159 300 144.673 300 127V32C300 14.3269 285.673 0 268 0H28Z" fill="#F37480"/>
</svg>
