<svg width="300" height="159" viewBox="0 0 300 159" fill="none" xmlns="http://www.w3.org/2000/svg">
<path fill-rule="evenodd" clip-rule="evenodd" d="M28 2.91268e-08C12.536 1.30405e-08 -1.30405e-08 12.536 -2.91268e-08 28L-1.36272e-07 131C-1.52358e-07 146.464 12.536 159 28 159L268 159C284.661 159 298.349 146.266 299.861 130L295.5 130C292.462 130 290 127.538 290 124.5C290 121.462 292.462 119 295.5 119L300 119L300 85L295 85C292.239 85 290 82.7614 290 80C290 77.2386 292.239 75 295 75L300 75L300 41L295.5 41C292.462 41 290 38.5376 290 35.5C290 32.4624 292.462 30 295.5 30L299.939 30C298.906 13.2585 285.001 2.96471e-07 268 2.78786e-07L28 2.91268e-08Z" fill="#F2A0FF"/>
</svg>
